<?xml version="1.0" standalone="no"?>
<!DOCTYPE svg PUBLIC "-//W3C//DTD SVG 20010904//EN"
 "http://www.w3.org/TR/2001/REC-SVG-20010904/DTD/svg10.dtd">
<svg version="1.0" xmlns="http://www.w3.org/2000/svg"
 width="260.000000pt" height="260.000000pt" viewBox="0 0 260.000000 260.000000"
 preserveAspectRatio="xMidYMid meet">
<metadata>
Created by potrace 1.11, written by Peter Selinger 2001-2013
</metadata>
<g transform="translate(0.000000,260.000000) scale(0.100000,-0.100000)"
fill="#000000" stroke="none">
<path d="M1150 2593 c-288 -44 -515 -147 -713 -323 -289 -256 -441 -608 -432
-1000 2 -80 6 -156 9 -170 3 -14 11 -50 17 -80 35 -171 131 -376 241 -515 202
-255 460 -415 775 -479 100 -20 141 -24 273 -21 163 3 245 16 383 61 417 136
731 467 851 894 9 30 18 73 22 95 3 22 10 60 14 85 9 48 6 305 -4 355 -4 17
-11 55 -17 85 -27 136 -104 315 -192 446 -180 271 -491 481 -802 544 -27 5
-63 12 -80 16 -35 7 -308 13 -345 7z m210 -311 c30 -15 627 -454 714 -525 55
-45 44 -178 -17 -204 -12 -5 -41 -8 -64 -8 l-43 1 0 -408 0 -408 53 0 c81 -1
115 -36 109 -114 l-4 -46 -808 0 c-904 0 -819 -8 -812 72 6 58 42 88 108 88
l54 0 0 409 0 409 -37 -2 c-80 -5 -123 35 -123 114 0 54 22 95 68 124 20 13
174 126 342 252 168 126 321 236 340 246 43 23 77 23 120 0z"/>
<path d="M1014 1882 c-150 -92 -270 -169 -267 -172 6 -6 1113 -6 1113 0 -1 8
-542 335 -559 337 -9 1 -138 -73 -287 -165z"/>
<path d="M743 1543 c-10 -4 -13 -94 -13 -409 l0 -404 40 0 c35 0 40 3 41 23 1
28 1 757 0 778 -1 15 -38 22 -68 12z"/>
<path d="M892 1137 l1 -408 122 2 123 1 -1 407 -2 406 -122 0 -122 1 1 -409z"/>
<path d="M1220 1443 c-1 -57 -1 -227 -1 -378 0 -151 0 -288 1 -305 l0 -30 80
0 80 0 0 68 c2 285 -2 737 -6 742 -3 2 -39 5 -80 6 l-74 0 0 -103z"/>
<path d="M1471 1542 c-8 -3 -11 -106 -11 -408 l1 -405 122 3 122 3 0 405 0
404 -111 1 c-61 1 -116 -1 -123 -3z"/>
<path d="M1789 1516 c-1 -38 -1 -732 0 -763 1 -20 6 -23 41 -23 l40 0 0 408 0
408 -40 0 c-38 0 -40 -1 -41 -30z"/>
</g>
</svg>
