<?xml version="1.0" encoding="utf-8"?>
<svg version="1.1" xmlns:xlink="http://www.w3.org/1999/xlink" width="26px" height="16px" xmlns="http://www.w3.org/2000/svg">
  <g transform="matrix(1 0 0 1 -308 -588 )">
    <path d="M 26 3.5478260869565226  C 26 3.8209339774557165  25.897849462365592 4.055394524959741  25.693548387096776 4.251207729468598  L 13.725806451612902 15.706280193236715  C 13.521505376344088 15.902093397745572  13.279569892473118 16  13 16  C 12.720430107526884 16  12.478494623655916 15.902093397745572  12.274193548387096 15.706280193236715  L 0.3064516129032258 4.251207729468598  C 0.10215053763440876 4.055394524959741  0 3.8209339774557165  0 3.5478260869565226  C 0 3.274718196457325  0.10215053763440876 3.0402576489533004  0.3064516129032258 2.844444444444445  L 2.9838709677419355 0.2937198067632849  C 3.188172043010753 0.09790660225442771  3.430107526881721 0  3.7096774193548385 0  C 3.989247311827958 0  4.231182795698926 0.09790660225442771  4.435483870967742 0.2937198067632849  L 13 8.502415458937197  L 21.564516129032256 0.2937198067632849  C 21.76881720430108 0.09790660225442771  22.010752688172044 0  22.290322580645164 0  C 22.569892473118284 0  22.811827956989248 0.09790660225442771  23.016129032258064 0.2937198067632849  L 25.693548387096776 2.844444444444445  C 25.897849462365592 3.0402576489533004  26 3.274718196457325  26 3.5478260869565226  Z " fill-rule="nonzero" fill="#000000" stroke="none" transform="matrix(1 0 0 1 308 588 )" />
  </g>
</svg>